# xmcd
#
# Track frame offsets:
# 150
# 17571
# 36500
# 53441
# 69363
# 75589
# 92861
# 109972
# 127032
# 142928
# 156805
# 176395
# 199348
# 219637
# 237561
#
# Disc length: 3454 seconds
#
# Revision: 0
# Processed by: cddbd v1.4PL0 Copyright (c) Steve Scherf et al.
# Submitted via: Audion 3.0.2 (http://www.panic.com/audion/)
#
DISCID=cf0d7c0f
DTITLE=Thievery Corporation - The Richest Man in Babylon
DYEAR=1900
DGENRE=
TTITLE0=Heaven's Gonna Burn Your Eyes 
TTITLE1=Facing East    
TTITLE2=The Outernationalist
TTITLE3=Interlude 
TTITLE4=Omid (Hope) 
TTITLE5=All That We Perceive
TTITLE6=Un Simple Histoire (A Simple Story)
TTITLE7=Meu Destino (My Destiny)
TTITLE8=Exilio (Exile) 
TTITLE9=From Creation
TTITLE10=The Richest Man In Babylon
TTITLE11=Liberation Front
TTITLE12=The State of the Union
TTITLE13=Until the Morning
TTITLE14=Resolution
EXTD=
EXTT0=
EXTT1=
EXTT2=
EXTT3=
EXTT4=
EXTT5=
EXTT6=
EXTT7=
EXTT8=
EXTT9=
EXTT10=
EXTT11=
EXTT12=
EXTT13=
EXTT14=
PLAYORDER=
